<svg width="800" height="500" viewBox="0 0 800 500" fill="none" xmlns="http://www.w3.org/2000/svg">
  <!-- Fond de la fenêtre -->
  <rect width="800" height="500" rx="12" fill="#1F2937" />
  
  <!-- Barre latérale -->
  <rect width="200" height="500" rx="12" fill="#111827" />
  
  <!-- Logo dans la barre latérale -->
  <rect x="40" y="30" width="120" height="40" rx="6" fill="#374151" />
  <rect x="55" y="44" width="90" height="4" rx="2" fill="url(#sidebarGradient)" />
  <rect x="55" y="52" width="70" height="4" rx="2" fill="url(#sidebarGradient)" />
  
  <!-- Menu de navigation -->
  <rect x="40" y="100" width="120" height="36" rx="6" fill="#4338CA" opacity="0.2" />
  <rect x="50" y="116" width="16" height="4" rx="2" fill="#8B5CF6" />
  <rect x="76" y="116" width="60" height="4" rx="2" fill="#8B5CF6" />
  
  <rect x="40" y="146" width="120" height="36" rx="6" fill="#374151" />
  <rect x="50" y="162" width="16" height="4" rx="2" fill="#6B7280" />
  <rect x="76" y="162" width="50" height="4" rx="2" fill="#6B7280" />
  
  <rect x="40" y="192" width="120" height="36" rx="6" fill="#374151" />
  <rect x="50" y="208" width="16" height="4" rx="2" fill="#6B7280" />
  <rect x="76" y="208" width="70" height="4" rx="2" fill="#6B7280" />
  
  <!-- Contenu principal -->
  <rect x="220" y="30" width="560" height="60" rx="8" fill="#111827" />
  <rect x="240" y="43" width="200" height="8" rx="4" fill="#6B7280" />
  <rect x="240" y="59" width="120" height="6" rx="3" fill="#4B5563" />
  <rect x="660" y="43" width="100" height="32" rx="6" fill="url(#buttonGradient)" />
  <rect x="690" y="57" width="40" height="4" rx="2" fill="white" />
  
  <!-- Timeline / Tableau de bord -->
  <rect x="220" y="110" width="560" height="370" rx="8" fill="#111827" />
  
  <!-- En-tête de la timeline -->
  <rect x="240" y="130" width="520" height="40" rx="4" fill="#1F2937" />
  <rect x="260" y="148" width="40" height="4" rx="2" fill="#D1D5DB" />
  <rect x="320" y="148" width="60" height="4" rx="2" fill="#9CA3AF" />
  <rect x="400" y="148" width="60" height="4" rx="2" fill="#9CA3AF" />
  <rect x="480" y="148" width="60" height="4" rx="2" fill="#9CA3AF" />
  <rect x="560" y="148" width="60" height="4" rx="2" fill="#9CA3AF" />
  <rect x="640" y="148" width="60" height="4" rx="2" fill="#9CA3AF" />
  
  <!-- Première ligne de la timeline -->
  <rect x="240" y="180" width="520" height="60" rx="4" fill="#1F2937" />
  <rect x="260" y="198" width="60" height="6" rx="3" fill="#E5E7EB" />
  <rect x="260" y="212" width="40" height="4" rx="2" fill="#9CA3AF" />
  
  <rect x="340" y="190" width="120" height="40" rx="4" fill="url(#event1Gradient)" />
  <rect x="352" y="204" width="80" height="4" rx="2" fill="white" />
  <rect x="352" y="214" width="60" height="3" rx="1.5" fill="white" opacity="0.7" />
  
  <!-- Deuxième ligne de la timeline -->
  <rect x="240" y="250" width="520" height="60" rx="4" fill="#1F2937" />
  <rect x="260" y="268" width="60" height="6" rx="3" fill="#E5E7EB" />
  <rect x="260" y="282" width="40" height="4" rx="2" fill="#9CA3AF" />
  
  <rect x="480" y="260" width="140" height="40" rx="4" fill="url(#event2Gradient)" />
  <rect x="492" y="274" width="100" height="4" rx="2" fill="white" />
  <rect x="492" y="284" width="80" height="3" rx="1.5" fill="white" opacity="0.7" />
  
  <!-- Troisième ligne de la timeline -->
  <rect x="240" y="320" width="520" height="60" rx="4" fill="#1F2937" />
  <rect x="260" y="338" width="60" height="6" rx="3" fill="#E5E7EB" />
  <rect x="260" y="352" width="40" height="4" rx="2" fill="#9CA3AF" />
  
  <rect x="400" y="330" width="100" height="40" rx="4" fill="url(#event3Gradient)" />
  <rect x="412" y="344" width="70" height="4" rx="2" fill="white" />
  <rect x="412" y="354" width="50" height="3" rx="1.5" fill="white" opacity="0.7" />
  
  <!-- Quatrième ligne de la timeline -->
  <rect x="240" y="390" width="520" height="60" rx="4" fill="#1F2937" />
  <rect x="260" y="408" width="60" height="6" rx="3" fill="#E5E7EB" />
  <rect x="260" y="422" width="40" height="4" rx="2" fill="#9CA3AF" />
  
  <rect x="580" y="400" width="120" height="40" rx="4" fill="url(#event4Gradient)" />
  <rect x="592" y="414" width="90" height="4" rx="2" fill="white" />
  <rect x="592" y="424" width="60" height="3" rx="1.5" fill="white" opacity="0.7" />
  
  <!-- Définition des dégradés -->
  <defs>
    <linearGradient id="sidebarGradient" x1="0" y1="0" x2="100%" y2="0" gradientUnits="userSpaceOnUse">
      <stop offset="0%" stop-color="#8B5CF6" />
      <stop offset="100%" stop-color="#4F46E5" />
    </linearGradient>
    
    <linearGradient id="buttonGradient" x1="0" y1="0" x2="100%" y2="0" gradientUnits="userSpaceOnUse">
      <stop offset="0%" stop-color="#8B5CF6" />
      <stop offset="100%" stop-color="#4F46E5" />
    </linearGradient>
    
    <linearGradient id="event1Gradient" x1="0" y1="0" x2="100%" y2="100%" gradientUnits="userSpaceOnUse">
      <stop offset="0%" stop-color="#3B82F6" />
      <stop offset="100%" stop-color="#2563EB" />
    </linearGradient>
    
    <linearGradient id="event2Gradient" x1="0" y1="0" x2="100%" y2="100%" gradientUnits="userSpaceOnUse">
      <stop offset="0%" stop-color="#8B5CF6" />
      <stop offset="100%" stop-color="#6D28D9" />
    </linearGradient>
    
    <linearGradient id="event3Gradient" x1="0" y1="0" x2="100%" y2="100%" gradientUnits="userSpaceOnUse">
      <stop offset="0%" stop-color="#EC4899" />
      <stop offset="100%" stop-color="#BE185D" />
    </linearGradient>
    
    <linearGradient id="event4Gradient" x1="0" y1="0" x2="100%" y2="100%" gradientUnits="userSpaceOnUse">
      <stop offset="0%" stop-color="#10B981" />
      <stop offset="100%" stop-color="#059669" />
    </linearGradient>
  </defs>
</svg> 