<svg width="200" height="60" viewBox="0 0 200 60" fill="none" xmlns="http://www.w3.org/2000/svg">
  <!-- Fond du logo -->
  <rect x="10" y="10" width="40" height="40" rx="6" fill="url(#gradient)" />
  
  <!-- Lignes de timeline -->
  <rect x="20" y="20" width="20" height="4" rx="2" fill="white" />
  <rect x="20" y="28" width="16" height="4" rx="2" fill="white" />
  <rect x="20" y="36" width="24" height="4" rx="2" fill="white" />
  
  <!-- Point de timeline -->
  <circle cx="15" y="22" r="2" fill="white" />
  <circle cx="15" y="30" r="2" fill="white" />
  <circle cx="15" y="38" r="2" fill="white" />
  
  <!-- Texte "Ma Timeline" -->
  <path d="M65 25 L70 25 L73 35 L76 25 L81 25 L84 35 L87 25 L92 25 L86 40 L81 40 L78 30 L75 40 L70 40 Z" fill="url(#textGradient)" />
  <path d="M95 25 L100 25 L100 40 L95 40 Z" fill="url(#textGradient)" />
  <path d="M102 25 L107 25 L107 37 L115 37 L115 40 L102 40 Z" fill="url(#textGradient)" />
  <path d="M117 25 L122 25 L122 40 L117 40 Z" fill="url(#textGradient)" />
  <path d="M124 25 L138 25 L138 28 L129 28 L129 31 L137 31 L137 34 L129 34 L129 37 L138 37 L138 40 L124 40 Z" fill="url(#textGradient)" />
  <path d="M140 25 L145 25 L145 37 L153 37 L153 40 L140 40 Z" fill="url(#textGradient)" />
  <path d="M155 25 L160 25 L160 40 L155 40 Z" fill="url(#textGradient)" />
  <path d="M162 25 L167 25 L167 31 L172 31 L172 25 L177 25 L177 40 L172 40 L172 34 L167 34 L167 40 L162 40 Z" fill="url(#textGradient)" />
  <path d="M179 25 L193 25 L193 28 L184 28 L184 31 L192 31 L192 34 L184 34 L184 37 L193 37 L193 40 L179 40 Z" fill="url(#textGradient)" />
  
  <!-- Définitions des dégradés -->
  <defs>
    <linearGradient id="gradient" x1="10" y1="10" x2="50" y2="50" gradientUnits="userSpaceOnUse">
      <stop offset="0%" stop-color="#8B5CF6" />
      <stop offset="100%" stop-color="#4F46E5" />
    </linearGradient>
    <linearGradient id="textGradient" x1="65" y1="25" x2="65" y2="40" gradientUnits="userSpaceOnUse">
      <stop offset="0%" stop-color="#8B5CF6" />
      <stop offset="100%" stop-color="#4F46E5" />
    </linearGradient>
  </defs>
</svg> 