<svg width="400" height="800" viewBox="0 0 400 800" fill="none" xmlns="http://www.w3.org/2000/svg">
  <!-- Contour du téléphone -->
  <rect width="400" height="800" rx="50" fill="#111827" />
  <rect x="10" y="10" width="380" height="780" rx="40" fill="#1F2937" />
  
  <!-- Écran du téléphone -->
  <rect x="20" y="20" width="360" height="760" rx="32" fill="#111827" />
  
  <!-- Encoche du téléphone -->
  <path d="M160 20 L240 20 C240 20 250 20 250 30 C250 40 240 40 240 40 L160 40 C160 40 150 40 150 30 C150 20 160 20 160 20 Z" fill="#1F2937" />
  
  <!-- En-tête de l'application -->
  <rect x="40" y="70" width="320" height="60" rx="12" fill="#1F2937" />
  <rect x="60" y="92" width="120" height="8" rx="4" fill="url(#headerGradient)" />
  <rect x="60" y="104" width="80" height="6" rx="3" fill="#9CA3AF" />
  <circle cx="300" cy="100" r="20" fill="url(#avatarGradient)" />
  
  <!-- Section calendrier -->
  <rect x="40" y="150" width="320" height="200" rx="12" fill="#1F2937" />
  
  <!-- En-tête du calendrier -->
  <rect x="60" y="170" width="280" height="30" rx="6" fill="#111827" />
  <rect x="75" y="183" width="60" height="4" rx="2" fill="white" />
  <rect x="165" y="183" width="4" height="4" rx="2" fill="#9CA3AF" />
  <rect x="185" y="183" width="60" height="4" rx="2" fill="#9CA3AF" />
  <rect x="265" y="183" width="4" height="4" rx="2" fill="#9CA3AF" />
  <rect x="285" y="183" width="40" height="4" rx="2" fill="#9CA3AF" />
  
  <!-- Jours du calendrier -->
  <rect x="60" y="210" width="280" height="120" rx="6" fill="#111827" />
  
  <!-- Rangée 1 des jours -->
  <circle cx="85" cy="230" r="15" fill="#1F2937" />
  <text x="85" y="234" text-anchor="middle" font-size="12" fill="#9CA3AF">1</text>
  
  <circle cx="125" cy="230" r="15" fill="#1F2937" />
  <text x="125" y="234" text-anchor="middle" font-size="12" fill="#9CA3AF">2</text>
  
  <circle cx="165" cy="230" r="15" fill="#1F2937" />
  <text x="165" y="234" text-anchor="middle" font-size="12" fill="#9CA3AF">3</text>
  
  <circle cx="205" cy="230" r="15" fill="#4F46E5" />
  <text x="205" y="234" text-anchor="middle" font-size="12" fill="white">4</text>
  
  <circle cx="245" cy="230" r="15" fill="#1F2937" />
  <text x="245" y="234" text-anchor="middle" font-size="12" fill="#9CA3AF">5</text>
  
  <circle cx="285" cy="230" r="15" fill="#1F2937" />
  <text x="285" y="234" text-anchor="middle" font-size="12" fill="#9CA3AF">6</text>
  
  <!-- Rangée 2 des jours -->
  <circle cx="85" cy="270" r="15" fill="#1F2937" />
  <text x="85" y="274" text-anchor="middle" font-size="12" fill="#9CA3AF">7</text>
  
  <circle cx="125" cy="270" r="15" fill="#1F2937" />
  <text x="125" y="274" text-anchor="middle" font-size="12" fill="#9CA3AF">8</text>
  
  <circle cx="165" cy="270" r="15" fill="#8B5CF6" />
  <text x="165" y="274" text-anchor="middle" font-size="12" fill="white">9</text>
  
  <circle cx="205" cy="270" r="15" fill="#1F2937" />
  <text x="205" y="274" text-anchor="middle" font-size="12" fill="#9CA3AF">10</text>
  
  <circle cx="245" cy="270" r="15" fill="#1F2937" />
  <text x="245" y="274" text-anchor="middle" font-size="12" fill="#9CA3AF">11</text>
  
  <circle cx="285" cy="270" r="15" fill="#1F2937" />
  <text x="285" y="274" text-anchor="middle" font-size="12" fill="#9CA3AF">12</text>
  
  <!-- Rangée 3 des jours -->
  <circle cx="85" cy="310" r="15" fill="#1F2937" />
  <text x="85" y="314" text-anchor="middle" font-size="12" fill="#9CA3AF">13</text>
  
  <circle cx="125" cy="310" r="15" fill="#1F2937" />
  <text x="125" y="314" text-anchor="middle" font-size="12" fill="#9CA3AF">14</text>
  
  <circle cx="165" cy="310" r="15" fill="#1F2937" />
  <text x="165" y="314" text-anchor="middle" font-size="12" fill="#9CA3AF">15</text>
  
  <circle cx="205" cy="310" r="15" fill="#1F2937" />
  <text x="205" y="314" text-anchor="middle" font-size="12" fill="#9CA3AF">16</text>
  
  <circle cx="245" cy="310" r="15" fill="#EC4899" />
  <text x="245" y="314" text-anchor="middle" font-size="12" fill="white">17</text>
  
  <circle cx="285" cy="310" r="15" fill="#1F2937" />
  <text x="285" y="314" text-anchor="middle" font-size="12" fill="#9CA3AF">18</text>
  
  <!-- Section Timeline d'événements -->
  <rect x="40" y="370" width="320" height="380" rx="12" fill="#1F2937" />
  <rect x="60" y="390" width="120" height="8" rx="4" fill="white" />
  
  <!-- Événement 1 -->
  <rect x="60" y="420" width="280" height="70" rx="10" fill="#111827" />
  <rect x="80" y="435" width="100" height="6" rx="3" fill="white" />
  <rect x="80" y="448" width="160" height="4" rx="2" fill="#9CA3AF" />
  <rect x="80" y="458" width="60" height="4" rx="2" fill="#9CA3AF" />
  <rect x="60" y="420" width="6" height="70" rx="3" fill="url(#event1Gradient)" />
  
  <!-- Événement 2 -->
  <rect x="60" y="510" width="280" height="70" rx="10" fill="#111827" />
  <rect x="80" y="525" width="120" height="6" rx="3" fill="white" />
  <rect x="80" y="538" width="180" height="4" rx="2" fill="#9CA3AF" />
  <rect x="80" y="548" width="70" height="4" rx="2" fill="#9CA3AF" />
  <rect x="60" y="510" width="6" height="70" rx="3" fill="url(#event2Gradient)" />
  
  <!-- Événement 3 -->
  <rect x="60" y="600" width="280" height="70" rx="10" fill="#111827" />
  <rect x="80" y="615" width="90" height="6" rx="3" fill="white" />
  <rect x="80" y="628" width="140" height="4" rx="2" fill="#9CA3AF" />
  <rect x="80" y="638" width="50" height="4" rx="2" fill="#9CA3AF" />
  <rect x="60" y="600" width="6" height="70" rx="3" fill="url(#event3Gradient)" />
  
  <!-- Bouton d'ajout -->
  <circle cx="320" cy="700" r="30" fill="url(#buttonGradient)" />
  <rect x="310" y="698" width="20" height="4" rx="2" fill="white" />
  <rect x="318" y="690" width="4" height="20" rx="2" fill="white" />
  
  <!-- Barre de navigation -->
  <rect x="80" y="740" width="240" height="60" rx="30" fill="#1F2937" />
  <circle cx="120" cy="770" r="15" fill="#111827" />
  <rect x="113" y="765" width="14" height="2" rx="1" fill="#8B5CF6" />
  <rect x="113" y="770" width="14" height="2" rx="1" fill="#8B5CF6" />
  <rect x="113" y="775" width="14" height="2" rx="1" fill="#8B5CF6" />
  
  <circle cx="200" cy="770" r="15" fill="#111827" />
  <rect x="195" y="765" width="10" height="10" rx="2" fill="#8B5CF6" />
  
  <circle cx="280" cy="770" r="15" fill="#111827" />
  <circle cx="280" cy="770" r="6" fill="#8B5CF6" />
  <circle cx="280" cy="758" r="2" fill="#8B5CF6" />
  <circle cx="290" cy="764" r="2" fill="#8B5CF6" />
  <circle cx="270" cy="764" r="2" fill="#8B5CF6" />
  <circle cx="290" cy="776" r="2" fill="#8B5CF6" />
  <circle cx="270" cy="776" r="2" fill="#8B5CF6" />
  <circle cx="280" cy="782" r="2" fill="#8B5CF6" />
  
  <!-- Définition des dégradés -->
  <defs>
    <linearGradient id="headerGradient" x1="0" y1="0" x2="100%" y2="0" gradientUnits="userSpaceOnUse">
      <stop offset="0%" stop-color="#8B5CF6" />
      <stop offset="100%" stop-color="#4F46E5" />
    </linearGradient>
    
    <linearGradient id="avatarGradient" x1="280" y1="80" x2="320" y2="120" gradientUnits="userSpaceOnUse">
      <stop offset="0%" stop-color="#8B5CF6" />
      <stop offset="100%" stop-color="#4F46E5" />
    </linearGradient>
    
    <linearGradient id="buttonGradient" x1="290" y1="670" x2="350" y2="730" gradientUnits="userSpaceOnUse">
      <stop offset="0%" stop-color="#8B5CF6" />
      <stop offset="100%" stop-color="#4F46E5" />
    </linearGradient>
    
    <linearGradient id="event1Gradient" x1="60" y1="420" x2="66" y2="490" gradientUnits="userSpaceOnUse">
      <stop offset="0%" stop-color="#3B82F6" />
      <stop offset="100%" stop-color="#2563EB" />
    </linearGradient>
    
    <linearGradient id="event2Gradient" x1="60" y1="510" x2="66" y2="580" gradientUnits="userSpaceOnUse">
      <stop offset="0%" stop-color="#8B5CF6" />
      <stop offset="100%" stop-color="#6D28D9" />
    </linearGradient>
    
    <linearGradient id="event3Gradient" x1="60" y1="600" x2="66" y2="670" gradientUnits="userSpaceOnUse">
      <stop offset="0%" stop-color="#EC4899" />
      <stop offset="100%" stop-color="#BE185D" />
    </linearGradient>
  </defs>
</svg> 